<?xml version="1.0" encoding="UTF-8"?>
<!-- Generator: Adobe Illustrator 25.4.1, SVG Export Plug-In . SVG Version: 6.00 Build 0)  -->
<svg version="1.1" id="Layer_1" xmlns="http://www.w3.org/2000/svg" xmlns:xlink="http://www.w3.org/1999/xlink" x="0px" y="0px" viewBox="0 0 216 135" style="enable-background:new 0 0 216 135;" xml:space="preserve" width="216px" height="135px">
<style type="text/css">
	.st0{fill:#FFFFFF;}
	.st1{fill-rule:evenodd;clip-rule:evenodd;fill:#EA2326;}
	.st2{fill-rule:evenodd;clip-rule:evenodd;fill:#F1EB46;}
	.st3{fill-rule:evenodd;clip-rule:evenodd;fill:#7AC143;}
</style>
<g>
	<path class="st0" d="M212.5,31.2c-0.1-0.2-0.2-0.5-0.4-0.7c-6.4-11.8-17.4-18.3-30.7-18.3c-6.2,0-11.3,1.4-13.9,2.3   c-8.4-4-18-6.8-28.1-8.4c-1.1-1.2-2.4-2.2-4-3c-1.2-0.6-2.4-0.9-3.7-1.1L122.8,1c-0.5-0.1-1-0.1-1.4-0.1c-1,0-2.1,0.1-3.1,0.4   c-1.1-0.3-2.2-0.4-3.4-0.4c-0.2,0-0.4,0-0.7,0c-6.1,0-14,1.1-19.1,6c-3.5,0.7-6.9,1.5-10.2,2.4C82.7,9,80.4,9,78.3,9   C48.9,9,29.9,22.9,29.1,23.5c-2.2,1.7-3.8,4-4.5,6.6c-2.5,10.2-1.6,20-0.7,25.3C12,62.4,4.6,71.1,2,81.6   c-3.2,12.9,2.4,23.3,4.1,26.1c5.7,10.2,15,15.8,26.4,15.8c5.6,0,10.2-1.3,13.1-2.4c20.3,8.6,40.4,13,59.6,13   c46.9,0,73.3-25.7,74.4-26.8c2.9-2.9,4-6.9,3.3-10.6c9.6-8.1,15.9-17.9,18.1-28.2c7.2-4.8,10.7-10.5,12.4-14.9   C217.3,42.5,213,32.3,212.5,31.2z"/>
	<path class="st1" d="M188.6,58.5c1.2,25.1-30.9,47-71.7,48.9c-40.8,1.9-74.8-17-76-42.1c-1.2-25.1,30.9-47,71.7-48.9   C153.3,14.6,187.4,33.4,188.6,58.5z"/>
	<path class="st2" d="M120.6,25.9c0,0-35.2-2.4-62.3,22.7c0,0-19.8,17.5,0,29.1l37.3-5.9c0,0,0.9-5.9,61.1,8.1   c0,0,21.2,6.1,20.9-21.2c0,0,3.8-12.4-14.6-21.8C163.1,37,151.8,28.5,120.6,25.9z"/>
	<g>
		<path class="st2" d="M91.5,91.8c1.1,3.5-1.2,5.8-2.3,8c-0.7,1-1.4,1.9-2.4,2.6c-4.1,1-8.6-0.6-8.8-4.7c3.5-1.4,3.8,3,6.9,2.7    c3-0.3,4-4.1,4.5-7.3C89.5,92,90.5,90.8,91.5,91.8z"/>
		<path class="st2" d="M106.3,90.3c1.5-1.3,3.9-0.2,3.2,2.1C107.7,93.4,105.6,92.3,106.3,90.3z"/>
		<path class="st2" d="M101.6,103.6c-1.8,0.2-2.1-1.6-2.9-3c-1.5,0.5-2.3,1.9-3.9,1.9c-3.8,0.1-2.1-5.6-1.7-8.2    c0.9-0.3,1.1,0.2,1.7,0.2c1.1,2.1-0.8,3.4-0.3,5.6c3.1-0.9,4.6-2.9,6.6-4.6c1-0.2,1.2,0.5,1.2,1.5c-0.5,1.4-1.8,2.2-1.6,4.1    c0.5,1.1,1.8-0.1,2.5,0.5c0.1,0.4,0.1,0.8,0.2,1.2C103.3,103.5,102.5,103.6,101.6,103.6z"/>
		<path class="st2" d="M113.7,104.5c-1.3-0.1-2.2-0.8-2.5-2.2c-0.1-0.7-0.2-1.4-0.3-2c0-0.7,0.2-1.2,0.4-1.7    c0.5-0.8,1.1-1.5,1.6-2.3c2-1.9,6.1,1,4.6,3.1c-1.5,0.9-1.8-0.8-2.7-1.2c-1.1,0.8-1.7,2-1.8,3.5c0,1.1,1.9,0.6,2.5,0.3    c1.4-0.4,2-2,3.5-1.7c0.7,1.9-0.7,3.4-2.6,3.8C115.4,104.4,115.7,104.5,113.7,104.5z"/>
		<path class="st2" d="M109.6,102.8c-0.9,1-3.8,1.9-4.8,0.6c-0.7-0.9-0.1-6.1,0.4-8.8c1.6-0.8,3.3,0.5,2.8,2.3    c-0.4,0.7-0.4,1.7-0.7,2.4c-0.1,1-0.6,1.7-0.7,2.8c1.8-0.1,2.2-1.8,4-1.3c0,0.2,0.1,0.4,0.1,0.6    C110.7,102.1,109.9,102.4,109.6,102.8z"/>
		<path class="st2" d="M125.1,99.4c-0.7,1.1-3.8,0.7-3.1,3.1c1.8,1.2,4.3-2.2,5.2-0.8c1.2,5-9.3,4.1-7.1-1.4    c-0.3-1.1-1.8-2.2-0.8-3.4c0.9-0.2,1.2,0.2,1.7,0.4c0.3-1.9,3.5-3,5-1.4c0.2,0.3,0.3,0.6,0.4,0.8    C126.8,98.2,125.8,98.8,125.1,99.4z M123.3,96.6c-0.5,0.5-1,1-1,2c1.1,1,2.8-0.7,2.4-1.6c0-0.3-0.1-0.4-0.4-0.5    C124.1,96.4,123.9,96.2,123.3,96.6z"/>
		<path class="st2" d="M92.8,89.7c-1.7,1.2-3.7-0.3-3-2.3C91.4,86.1,94,87.7,92.8,89.7z"/>
	</g>
	<path class="st3" d="M34.7,33c0,0,23.1-17.3,57.8-10.7l-7.4,12.3L74.4,36c0,0,9.6,47-32.7,73.4c0,0-18,8.7-26.9-7.6   c0,0-14.2-21.1,15.5-37.1c0,0-0.2,12,4.8,19.8c0,0-4.6,4.2-1.8,7.6c0,0,8.2,8.9,18.6-10.2c0,0,11.3-17,1.9-38.5   c0,0-9.8,5.1-15.5,11.6c0,0-2.7,3.7-3.7,1.4C34.7,56.4,31.8,44.7,34.7,33z"/>
	<path class="st3" d="M101.1,16.4c0,0-31.8,46.5-12.7,55.7c0,0,12.2,11.8,29.7-24.4c0,0,7.4-13.5,10.9-31.3c0,0,1-2.1,0-2.6   l-8.9-1.1c0,0-1.5,0-2.2,2.6c0,0-13.8,44.9-21.6,41.2c0,0-8-6.6,18.5-41.8c0,0,1-2-1.3-2C113.5,12.7,103.7,12.4,101.1,16.4z"/>
	<path class="st3" d="M134.2,34.1c0,0-9.6,8.4-30.4,52.6c0,0-1.2,1.5,0,1.3c0,0,4.2-1.8,11.3,0c0,0,1.2,0.9,1.5-2.2   c0.1-1,0.2-1.3,0.2-1.3s2.4-8.2,6.5-17.3c0,0-2.4,15.5-0.2,17.3c0,0,4-11,9.1-13.6c0,0,1.6,10.2-2.7,18.3c0,0,6.5-0.4,10.2,3.7   c0,0,2.1,2.6,3.2,2.3c0,0-2.2-33.6,16.5-63.2c0,0,0.6-0.9-1.5,0c0,0-10.8,5.1-23,22.4C135.2,54.4,136.5,46.6,134.2,34.1z"/>
	<path class="st3" d="M149.5,82.6c0,0,4.1-31.8,19.6-56.6c0,0,21-8.6,31.3,10.2c0,0,11.2,24.3-29.4,29.3c0,0-0.6-5.1,2.9-13.8   c0,0,13.7,5.7,16.2-7.4c0,0,2.5-10.3-12.1-11.1c0,0-15.2,18.4-15.6,53.6C162.4,86.7,160.1,84.7,149.5,82.6z"/>
	<path class="st1" d="M169.8,98.9c0,0-44.2,43.9-121.1,11.3l7.8-7.5C56.5,102.7,110.1,133.3,169.8,98.9z"/>
</g>
</svg>